<?xml version="1.0" encoding="UTF-8"?>
<svg version="1.1" xmlns="http://www.w3.org/2000/svg" width="1500" height="1460">
<path d="M0,0 L54,0 L62,3 L67,9 L69,15 L69,94 L70,109 L70,125 L67,135 L60,141 L51,144 L-7,145 L-35,148 L-61,153 L-86,160 L-108,168 L-132,179 L-150,189 L-171,203 L-188,216 L-202,228 L-219,244 L-228,254 L-237,264 L-248,278 L-258,291 L-272,313 L-286,340 L-294,360 L-300,378 L-306,403 L-307,407 L-56,406 L-43,408 L-34,414 L-31,420 L-30,425 L-30,459 L-27,491 L-26,513 L-28,529 L-32,540 L-41,550 L-51,555 L-67,558 L-81,558 L-134,553 L-307,553 L-303,568 L-296,593 L-286,619 L-274,644 L-262,664 L-250,681 L-237,697 L-226,709 L-206,729 L-195,738 L-179,751 L-152,769 L-135,779 L-109,792 L-85,801 L-65,807 L-42,812 L-17,815 L45,815 L56,818 L62,822 L67,828 L70,836 L70,862 L68,890 L69,918 L70,940 L68,949 L62,956 L55,959 L50,960 L-5,960 L-36,957 L-72,951 L-102,944 L-135,934 L-166,922 L-190,911 L-212,900 L-239,884 L-251,876 L-268,864 L-281,854 L-292,845 L-306,833 L-321,819 L-336,804 L-343,796 L-352,786 L-363,772 L-378,752 L-391,732 L-401,715 L-413,692 L-423,671 L-434,642 L-442,616 L-449,587 L-454,556 L-457,527 L-458,512 L-458,457 L-455,422 L-450,389 L-442,353 L-432,320 L-421,291 L-410,267 L-399,245 L-383,218 L-372,202 L-361,187 L-350,173 L-338,159 L-324,144 L-306,126 L-298,119 L-284,107 L-267,94 L-250,82 L-233,71 L-207,56 L-181,43 L-150,30 L-115,18 L-88,11 L-62,6 L-30,2 Z " fill="#FFFFFF" transform="translate(1359,250)"/>
<path d="M0,0 L57,0 L67,3 L73,8 L76,14 L77,18 L78,56 L80,81 L80,110 L76,126 L71,136 L63,143 L54,147 L49,148 L28,148 L-1,145 L-16,145 L-39,149 L-63,155 L-90,164 L-111,173 L-128,181 L-152,195 L-171,208 L-184,218 L-197,229 L-209,240 L-224,255 L-233,266 L-244,279 L-257,298 L-267,314 L-279,336 L-289,359 L-297,381 L-304,407 L-309,435 L-311,454 L-311,498 L-308,525 L-303,552 L-295,582 L-285,609 L-273,635 L-263,653 L-247,677 L-235,693 L-226,703 L-219,711 L-200,730 L-189,739 L-174,751 L-153,765 L-132,777 L-107,789 L-77,800 L-51,807 L-24,812 L3,815 L46,816 L62,818 L70,823 L74,831 L76,841 L77,860 L77,914 L76,931 L73,945 L67,954 L59,958 L50,960 L-1,960 L-29,958 L-59,954 L-93,947 L-122,939 L-153,928 L-178,917 L-197,908 L-220,895 L-242,881 L-259,869 L-272,859 L-283,850 L-293,841 L-301,834 L-330,805 L-339,794 L-347,785 L-360,768 L-372,751 L-384,732 L-396,711 L-408,688 L-421,658 L-433,624 L-441,595 L-448,563 L-453,528 L-455,506 L-455,445 L-452,415 L-446,379 L-438,347 L-426,311 L-414,282 L-404,261 L-391,238 L-379,218 L-367,201 L-358,189 L-347,175 L-334,160 L-320,145 L-303,128 L-295,121 L-280,108 L-263,95 L-245,82 L-226,70 L-205,58 L-180,45 L-152,33 L-124,23 L-97,15 L-66,8 L-33,3 Z " fill="#FFFFFF" transform="translate(527,250)"/>
</svg>
