<?xml version="1.0" encoding="UTF-8"?>
<svg version="1.1" xmlns="http://www.w3.org/2000/svg" width="1500" height="1460">
<path d="M0,0 L58,0 L86,3 L115,8 L143,15 L176,26 L202,37 L230,51 L255,66 L274,79 L291,92 L302,101 L316,113 L343,140 L350,148 L364,165 L377,183 L390,203 L402,224 L409,237 L409,240 L401,242 L371,247 L348,248 L331,247 L309,243 L289,237 L270,229 L251,219 L234,208 L220,198 L207,188 L192,176 L173,163 L152,151 L130,141 L106,133 L81,127 L61,124 L49,123 L10,123 L-16,126 L-41,131 L-68,139 L-95,150 L-117,161 L-138,174 L-156,187 L-170,199 L-182,210 L-194,222 L-203,233 L-215,248 L-226,265 L-238,286 L-248,307 L-257,332 L-264,357 L-268,378 L-271,404 L-271,447 L-268,473 L-263,497 L-257,518 L-250,538 L-238,564 L-227,583 L-214,602 L-203,616 L-192,628 L-185,636 L-170,650 L-156,661 L-141,672 L-121,684 L-98,696 L-75,705 L-57,711 L-32,717 L-7,721 L22,723 L34,723 L63,721 L93,716 L119,709 L146,699 L167,689 L189,676 L206,664 L216,656 L230,644 L243,631 L259,619 L273,612 L289,608 L307,608 L324,609 L394,608 L401,610 L406,616 L408,624 L407,634 L402,644 L391,656 L383,664 L378,669 L367,681 L360,689 L349,701 L337,714 L322,729 L314,736 L302,747 L291,756 L273,770 L249,786 L225,800 L196,814 L165,826 L135,835 L108,841 L83,845 L64,847 L46,848 L13,848 L-15,846 L-44,842 L-72,836 L-101,828 L-129,818 L-156,806 L-176,796 L-198,783 L-213,773 L-227,763 L-241,752 L-255,740 L-268,728 L-286,710 L-295,699 L-303,690 L-318,670 L-328,655 L-340,635 L-352,612 L-361,593 L-370,569 L-378,544 L-385,519 L-390,507 L-396,498 L-403,492 L-413,488 L-426,486 L-459,487 L-497,488 L-573,488 L-622,487 L-655,487 L-666,491 L-670,496 L-673,505 L-674,826 L-677,836 L-683,843 L-689,845 L-719,845 L-755,848 L-787,848 L-797,845 L-805,840 L-812,832 L-816,821 L-817,816 L-817,783 L-814,754 L-814,47 L-812,37 L-809,31 L-802,25 L-788,22 L-403,23 L-393,27 L-388,35 L-387,42 L-387,77 L-386,91 L-386,127 L-389,138 L-394,146 L-401,152 L-414,156 L-441,156 L-468,153 L-659,153 L-667,156 L-671,161 L-673,169 L-673,256 L-674,340 L-672,349 L-667,355 L-657,358 L-406,358 L-397,355 L-392,349 L-388,338 L-380,309 L-371,282 L-359,253 L-350,234 L-338,212 L-326,193 L-315,177 L-302,160 L-291,147 L-284,139 L-273,127 L-258,112 L-250,105 L-236,93 L-216,78 L-195,64 L-180,55 L-156,42 L-129,30 L-102,20 L-78,13 L-52,7 L-29,3 Z " fill="currentColor" transform="translate(954,306)"/>
<path d="M0,0 L34,0 L58,3 L81,8 L107,16 L128,25 L144,33 L160,42 L176,53 L186,61 L199,72 L214,87 L225,101 L232,111 L241,127 L251,148 L253,155 L253,173 L224,174 L166,175 L148,175 L137,171 L128,164 L120,156 L106,145 L91,135 L68,124 L48,118 L31,115 L-1,115 L-21,119 L-41,127 L-57,136 L-73,148 L-86,160 L-97,173 L-107,188 L-115,204 L-121,220 L-125,236 L-127,252 L-127,267 L-125,284 L-120,305 L-114,320 L-105,337 L-96,349 L-87,359 L-76,370 L-59,382 L-41,392 L-20,400 L-5,404 L10,406 L30,406 L50,403 L67,398 L84,391 L99,382 L109,374 L119,365 L128,355 L135,347 L143,339 L159,331 L167,329 L224,329 L232,328 L246,328 L252,331 L255,335 L255,348 L248,372 L242,388 L233,407 L221,426 L210,439 L201,449 L194,456 L183,465 L169,475 L150,486 L129,496 L104,505 L77,512 L54,516 L35,518 L-4,518 L-29,515 L-53,510 L-83,500 L-103,491 L-124,479 L-142,466 L-155,455 L-170,441 L-177,433 L-190,417 L-200,402 L-210,385 L-220,364 L-228,343 L-236,313 L-240,289 L-242,263 L-242,251 L-240,225 L-235,199 L-229,178 L-220,156 L-212,140 L-203,124 L-191,107 L-182,96 L-173,86 L-154,67 L-140,56 L-125,45 L-110,36 L-87,24 L-68,16 L-41,7 L-18,2 Z " fill="currentColor" transform="translate(963,470)"/>
</svg>
